HIERARCHY
ROOT Hips
{
	OFFSET 0.000000 0.000000 0.000000
	CHANNELS 6 Xposition Yposition Zposition Yrotation Xrotation Zrotation
	JOINT Chest
	{
		OFFSET 0.000000 -0.009281 11.569106
		CHANNELS 3 Yrotation Xrotation Zrotation
		JOINT Chest2
		{
			OFFSET -0.000000 0.016865 9.269641
			CHANNELS 3 Yrotation Xrotation Zrotation
			JOINT Chest3
			{
				OFFSET -0.000000 0.000001 8.374491
				CHANNELS 3 Yrotation Xrotation Zrotation
				JOINT Chest4
				{
					OFFSET -0.000000 0.000001 8.374493
					CHANNELS 3 Yrotation Xrotation Zrotation
					JOINT Neck
					{
						OFFSET -0.000000 0.000002 12.152554
						CHANNELS 3 Yrotation Xrotation Zrotation
						JOINT Head
						{
							OFFSET -0.000000 0.040101 7.802319
							CHANNELS 3 Yrotation Xrotation Zrotation
							End Site
							{
								OFFSET -0.000000 0.020947 14.853096
							}
						}
					}
					JOINT RightCollar
					{
						OFFSET 2.894404 0.000001 6.791374
						CHANNELS 3 Yrotation Xrotation Zrotation
						JOINT RightShoulder
						{
							OFFSET 13.574684 0.000001 0.000000
							CHANNELS 3 Yrotation Xrotation Zrotation
							JOINT RightElbow
							{
								OFFSET 23.923903 0.000002 0.000000
								CHANNELS 3 Yrotation Xrotation Zrotation
								JOINT RightWrist
								{
									OFFSET 19.846718 0.012767 0.000000
									CHANNELS 3 Yrotation Xrotation Zrotation
									End Site
									{
										OFFSET 14.973145 0.000001 0.000000
									}
								}
							}
						}
					}
					JOINT LeftCollar
					{
						OFFSET -2.894404 0.000001 6.791374
						CHANNELS 3 Yrotation Xrotation Zrotation
						JOINT LeftShoulder
						{
							OFFSET -13.574684 -0.000001 0.000000
							CHANNELS 3 Yrotation Xrotation Zrotation
							JOINT LeftElbow
							{
								OFFSET -23.923903 -0.000002 0.000000
								CHANNELS 3 Yrotation Xrotation Zrotation
								JOINT LeftWrist
								{
									OFFSET -19.846718 0.012763 0.000000
									CHANNELS 3 Yrotation Xrotation Zrotation
									End Site
									{
										OFFSET -14.973145 -0.000001 0.000000
									}
								}
							}
						}
					}
				}
			}
		}
	}
	JOINT RightHip
	{
		OFFSET 9.469263 0.004643 0.045487
		CHANNELS 3 Yrotation Xrotation Zrotation
		JOINT RightKnee
		{
			OFFSET 0.000000 0.002661 -40.478676
			CHANNELS 3 Yrotation Xrotation Zrotation
			JOINT RightAnkle
			{
				OFFSET 0.000000 0.049106 -35.224068
				CHANNELS 3 Yrotation Xrotation Zrotation
				JOINT RightToe
				{
					OFFSET -0.000001 12.539529 -6.151390
					CHANNELS 3 Yrotation Xrotation Zrotation
					End Site
					{
						OFFSET -0.000001 5.044994 -1.291870
					}
				}
			}
		}
	}
	JOINT LeftHip
	{
		OFFSET -9.469263 0.004641 0.045487
		CHANNELS 3 Yrotation Xrotation Zrotation
		JOINT LeftKnee
		{
			OFFSET 0.000000 0.002661 -40.478676
			CHANNELS 3 Yrotation Xrotation Zrotation
			JOINT LeftAnkle
			{
				OFFSET 0.000000 0.049106 -35.224068
				CHANNELS 3 Yrotation Xrotation Zrotation
				JOINT LeftToe
				{
					OFFSET -0.000001 12.539529 -6.151390
					CHANNELS 3 Yrotation Xrotation Zrotation
					End Site
					{
						OFFSET -0.000001 5.044994 -1.291870
					}
				}
			}
		}
	}
}
MOTION
Frames: 7
Frame Time: 0.016667
9.135507 7.377698 83.259438 -5.917274 -1.803596 -109.755082 -0.557588 -3.568088 1.030704 -0.237114 -1.585326 0.450561 -0.237114 -1.585326 0.450565 -0.176655 -1.189170 0.337288 0.442090 -15.888849 -2.173273 0.029303 6.662419 -3.887436 3.096230 20.123190 -4.233393 30.736920 50.667641 28.865428 -22.350612 -6.307566 57.864113 32.753824 -15.577399 -25.993490 -5.472340 15.454725 -3.855966 -26.039970 52.213005 -27.875715 5.262116 6.033011 -54.219370 -32.482744 -34.719545 40.621406 -0.658919 -6.215820 -3.363566 1.117072 -2.571862 -7.181958 -0.086407 1.970154 3.930324 -0.028873 -0.020736 0.043548 -0.607608 -6.724245 -0.630539 0.877292 -1.862070 0.546923 -1.033565 2.217676 0.173356 -0.022277 0.032686 -0.040990 
9.109183 7.373746 83.259064 -5.908166 -1.793347 -109.734953 -0.584664 -3.548166 1.022561 -0.250021 -1.576494 0.446556 -0.250021 -1.576495 0.446554 -0.186352 -1.182554 0.334252 0.445224 -15.898688 -2.166201 0.037996 6.644382 -3.872947 3.128663 20.054940 -4.228886 30.865557 50.456209 28.595360 -24.707263 -6.389718 59.253858 32.123667 -16.284996 -25.992749 -5.541513 15.341443 -3.884079 -26.190927 52.113725 -27.812658 6.531694 5.493965 -54.904295 -31.377114 -36.540003 40.558691 -0.653686 -6.192681 -3.364807 1.124095 -2.561641 -7.195808 -0.092986 1.954796 3.910434 -0.028482 -0.022842 0.043075 -0.599550 -6.691839 -0.631910 0.872172 -1.861204 0.528464 -1.042493 2.190299 0.166910 -0.019877 0.025833 -0.041338 
9.084365 7.366943 83.259232 -5.906002 -1.789375 -109.713390 -0.610347 -3.528938 1.015435 -0.262088 -1.567776 0.442924 -0.262088 -1.567777 0.442923 -0.195417 -1.176023 0.331500 0.450600 -15.920823 -2.162731 0.049891 6.603511 -3.864130 3.179928 19.944007 -4.193883 30.944978 50.249876 28.231718 -27.074675 -6.333870 60.536875 31.297867 -17.084890 -25.988434 -5.631257 15.226416 -3.955840 -26.338311 52.112561 -27.720386 7.749935 4.915349 -55.451926 -30.084859 -38.334642 40.253915 -0.643640 -6.183060 -3.366857 1.123010 -2.548340 -7.203065 -0.092161 1.937782 3.890763 -0.028476 -0.022639 0.043280 -0.585743 -6.670990 -0.641407 0.865159 -1.858664 0.515836 -1.050500 2.165428 0.161599 -0.018993 0.019411 -0.041679 
9.062531 7.360380 83.259445 -5.912496 -1.787652 -109.693398 -0.635779 -3.514191 1.012936 -0.273839 -1.561195 0.441500 -0.273839 -1.561195 0.441502 -0.204239 -1.171096 0.330407 0.456678 -15.945840 -2.166414 0.060563 6.557171 -3.868343 3.241602 19.778365 -4.149569 31.024386 50.026010 27.811881 -29.274556 -6.031159 61.699954 30.152358 -18.080375 -25.950397 -5.707211 15.101458 -3.989042 -26.562218 52.162547 -27.627343 8.899112 4.333514 -55.916088 -28.026370 -40.137064 39.290014 -0.631955 -6.179494 -3.373325 1.124589 -2.540330 -7.211960 -0.093434 1.924774 3.844005 -0.030788 -0.023294 0.042168 -0.577479 -6.661066 -0.646080 0.865046 -1.856357 0.504815 -1.059381 2.143709 0.154828 -0.019581 0.013747 -0.041609 
9.039822 7.350908 83.259293 -5.921000 -1.786329 -109.673502 -0.654459 -3.500228 1.007126 -0.283112 -1.555136 0.438749 -0.283112 -1.555136 0.438754 -0.211204 -1.166557 0.328321 0.454256 -15.965123 -2.168449 0.055846 6.521252 -3.872692 3.287635 19.587362 -4.128162 31.220692 49.865620 27.426852 -31.143316 -5.607473 62.823984 28.633326 -19.397203 -25.934336 -5.773087 14.947160 -3.964296 -26.869361 52.182352 -27.517772 9.940948 3.862783 -56.310357 -24.901369 -42.135454 37.347413 -0.624150 -6.176835 -3.388712 1.127297 -2.540608 -7.215273 -0.092612 1.919817 3.824674 -0.031950 -0.025264 0.043043 -0.568432 -6.650942 -0.650830 0.866047 -1.859514 0.497429 -1.069273 2.126369 0.146856 -0.021189 0.008431 -0.041811 
9.017635 7.342910 83.258362 -5.929531 -1.784907 -109.655894 -0.670078 -3.478111 0.993926 -0.290615 -1.545369 0.432862 -0.290615 -1.545370 0.432863 -0.216854 -1.159234 0.323891 0.444400 -15.981053 -2.161949 0.040300 6.491529 -3.863896 3.360767 19.387681 -4.065803 31.478593 49.887347 27.045471 -32.858100 -5.255213 63.925550 26.688133 -20.924290 -25.796595 -5.844145 14.730534 -3.890989 -27.257731 52.205052 -27.473432 10.872765 3.516601 -56.628596 -21.423788 -44.045506 34.948357 -0.618385 -6.170467 -3.412388 1.135766 -2.546309 -7.205085 -0.095835 1.919362 3.810087 -0.033340 -0.029115 0.042284 -0.561308 -6.638241 -0.653073 0.867212 -1.869488 0.491790 -1.072827 2.116653 0.137593 -0.026544 0.001646 -0.041836 
8.994856 7.335825 83.256844 -5.940569 -1.783946 -109.645116 -0.688547 -3.454070 0.976490 -0.299634 -1.534799 0.425259 -0.299634 -1.534800 0.425263 -0.223644 -1.151308 0.318175 0.439449 -15.993405 -2.149909 0.035805 6.468699 -3.843067 3.462538 19.261514 -3.973837 31.676461 49.962970 26.607378 -34.533969 -5.006033 64.876087 24.448244 -22.478412 -25.498852 -5.955756 14.513498 -3.876040 -27.595117 52.288411 -27.401887 11.726005 3.197546 -56.817041 -17.875078 -45.540713 32.244490 -0.614924 -6.167056 -3.435687 1.144098 -2.549773 -7.183669 -0.100776 1.920523 3.782187 -0.032430 -0.035239 0.041661 -0.557180 -6.625436 -0.655149 0.869115 -1.885462 0.486059 -1.071710 2.112219 0.137583 -0.033747 -0.004994 -0.041675 
